<?xml version="1.0" encoding="UTF-8" standalone="no"?>
<svg width="28px" height="40px" viewBox="0 0 28 40" version="1.1" xmlns="http://www.w3.org/2000/svg" xmlns:xlink="http://www.w3.org/1999/xlink">
    <!-- Generator: Sketch 39.1 (31720) - http://www.bohemiancoding.com/sketch -->
    <title>icon-place</title>
    <desc>Created with Sketch.</desc>
    <defs></defs>
    <g id="Welcome" stroke="none" stroke-width="1" fill="none" fill-rule="evenodd">
        <g id="Desktop" transform="translate(-443.000000, -643.000000)" fill="#FFFFFF">
            <g id="Header" transform="translate(-241.000000, -4.000000)">
                <path d="M697.605456,647.872764 C690.091775,647.872764 684,653.964717 684,661.478309 C684,671.569566 697.605456,686.958158 697.605456,686.958158 C697.605456,686.958158 711.211,671.569477 711.211,661.478309 C711.211,653.964717 705.119047,647.872764 697.605456,647.872764 L697.605456,647.872764 Z M697.605456,667.218806 C694.434626,667.218806 691.86487,664.649138 691.86487,661.47822 C691.86487,658.307301 694.434626,655.737634 697.605456,655.737634 C700.776285,655.737634 703.346042,658.307301 703.346042,661.47822 C703.346042,664.649138 700.776285,667.218806 697.605456,667.218806 L697.605456,667.218806 Z" id="icon-place"></path>
            </g>
        </g>
    </g>
</svg>