<?xml version="1.0" encoding="UTF-8" standalone="no"?>
<svg width="398px" height="152px" viewBox="0 0 398 152" version="1.1" xmlns="http://www.w3.org/2000/svg" xmlns:xlink="http://www.w3.org/1999/xlink">
    <!-- Generator: Sketch 39.1 (31720) - http://www.bohemiancoding.com/sketch -->
    <title>waq-logo</title>
    <desc>Created with Sketch.</desc>
    <defs></defs>
    <g id="Welcome" stroke="none" stroke-width="1" fill="none" fill-rule="evenodd">
        <g id="Desktop" transform="translate(-522.000000, -217.000000)">
            <g id="Header" transform="translate(-241.000000, -4.000000)">
                <g id="Group-2" transform="translate(763.000000, 221.000000)">
                    <g id="waq-logo">
                        <path d="M378,85.9468793 C378,94.4643391 376.453568,102.474374 373.360703,110.001151 C370.273879,117.515845 365.984945,124.136508 360.512025,129.851058 L375.553495,151.186991 L354.561886,151.186991 L347.397554,140.869388 L344.069102,136.145522 L337.593416,127.04815 C339.925145,125.417148 342.172305,123.610963 344.328853,121.629596 C346.485402,119.64219 348.382197,117.370867 350.013201,114.809589 C352.35097,111.662358 354.447111,107.753992 356.307662,103.08449 C358.295069,97.4967954 359.279712,91.836612 359.279712,86.1160203 C359.279712,79.3624614 358.113847,73.0015509 355.788157,67.0514099 C353.456428,61.1073108 350.188382,55.8881019 345.99006,51.399825 C341.797779,46.9115465 336.808118,43.353543 331.0392,40.7318577 C325.258202,38.1041306 318.939577,36.7993284 312.053119,36.7993284 C302.146287,36.7993284 293.459688,39.3002001 285.99332,44.3140228 C278.526951,49.3278469 272.872808,56.3834442 269.02485,65.4808146 C267.744211,68.5193128 266.723323,71.7450746 265.962189,75.1943423 C265.207096,78.6315293 264.826528,82.159328 264.826528,85.7716979 C264.826528,89.1545185 265.207096,92.5615021 265.962189,96.004731 C266.723323,99.4479584 267.744211,102.794534 269.02485,106.062581 C272.987583,115.039137 278.671929,122.004124 286.083931,126.96358 C293.483851,131.923036 302.146287,134.399743 312.053119,134.399743 C318.583172,134.399743 324.418537,133.294287 329.553176,131.071291 L339.520415,145.412033 C331.123772,149.266033 321.972033,151.186991 312.053119,151.186991 C302.961789,151.186991 294.420168,149.465377 286.434294,146.02819 C278.442382,142.597044 271.447191,137.897339 265.436643,131.947199 C259.432138,125.99706 254.708269,119.062278 251.271082,111.130772 C247.833895,103.205306 246.112282,94.7482548 246.112282,85.7716979 C246.112282,76.5595529 247.833895,67.9575233 251.271082,59.9716496 C254.708269,51.9797371 259.407975,45.0147499 265.352074,39.0646104 C271.302213,33.1205114 278.297404,28.4510112 286.343683,25.0742309 C294.389965,21.6914103 302.961789,20 312.053119,20 C321.265266,20 329.897499,21.7216137 337.943779,25.1588022 C345.99006,28.6080699 352.985249,33.2896524 358.94143,39.2458322 C364.885529,45.1899313 369.542948,52.1609588 372.931809,60.1468325 C376.31463,68.1327047 378,76.7286939 378,85.9468793 Z M210.429565,20.1872637 L120.343842,151.186991 L143.781957,151.186991 L214.627886,44.8335281 L214.803068,44.8335281 L214.803068,151.186991 L233.867679,151.186991 L233.867679,20.1872637 L210.429565,20.1872637 Z M161.451155,20 L90.436085,126.528646 L90.2609036,126.528646 L90.2609036,20 L71.1962916,48.8627079 L19.5901562,126.528646 L19.0646104,126.528646 L19.0646104,20 L0,20 L0,151.186991 L23.4381142,151.186991 L71.1962916,82.2741026 L71.1962916,151.186991 L94.6283655,151.186991 L185.070491,20 L161.451155,20 Z" id="WAQ" fill-opacity="0.5" fill="#4990E2"></path>
                        <path d="M398,65.9468793 C398,74.4643391 396.453568,82.4743743 393.360703,90.0011509 C390.273879,97.5158453 385.984945,104.136508 380.512025,109.851058 L395.553495,131.186991 L374.561886,131.186991 L367.397554,120.869388 L364.069102,116.145522 L357.593416,107.04815 C359.925145,105.417148 362.172305,103.610963 364.328853,101.629596 C366.485402,99.6421897 368.382197,97.3708672 370.013201,94.8095888 C372.35097,91.6623579 374.447111,87.7539915 376.307662,83.0844898 C378.295069,77.4967954 379.279712,71.836612 379.279712,66.1160203 C379.279712,59.3624614 378.113847,53.0015509 375.788157,47.0514099 C373.456428,41.1073108 370.188382,35.8881019 365.99006,31.399825 C361.797779,26.9115465 356.808118,23.353543 351.0392,20.7318577 C345.258202,18.1041306 338.939577,16.7993284 332.053119,16.7993284 C322.146287,16.7993284 313.459688,19.3002001 305.99332,24.3140228 C298.526951,29.3278469 292.872808,36.3834442 289.02485,45.4808146 C287.744211,48.5193128 286.723323,51.7450746 285.962189,55.1943423 C285.207096,58.6315293 284.826528,62.159328 284.826528,65.7716979 C284.826528,69.1545185 285.207096,72.5615021 285.962189,76.004731 C286.723323,79.4479584 287.744211,82.7945337 289.02485,86.0625812 C292.987583,95.0391366 298.671929,102.004124 306.083931,106.96358 C313.483851,111.923036 322.146287,114.399743 332.053119,114.399743 C338.583172,114.399743 344.418537,113.294287 349.553176,111.071291 L359.520415,125.412033 C351.123772,129.266033 341.972033,131.186991 332.053119,131.186991 C322.961789,131.186991 314.420168,129.465377 306.434294,126.02819 C298.442382,122.597044 291.447191,117.897339 285.436643,111.947199 C279.432138,105.99706 274.708269,99.0622776 271.271082,91.1307718 C267.833895,83.2053063 266.112282,74.7482548 266.112282,65.7716979 C266.112282,56.5595529 267.833895,47.9575233 271.271082,39.9716496 C274.708269,31.9797371 279.407975,25.0147499 285.352074,19.0646104 C291.302213,13.1205114 298.297404,8.45101117 306.343683,5.07423092 C314.389965,1.69141031 322.961789,0 332.053119,0 C341.265266,0 349.897499,1.72161367 357.943779,5.15880221 C365.99006,8.60806992 372.985249,13.2896524 378.94143,19.2458322 C384.885529,25.1899313 389.542948,32.1609588 392.931809,40.1468325 C396.31463,48.1327047 398,56.7286939 398,65.9468793 Z M230.429565,0.18726367 L140.343842,131.186991 L163.781957,131.186991 L234.627886,24.8335281 L234.803068,24.8335281 L234.803068,131.186991 L253.867679,131.186991 L253.867679,0.18726367 L230.429565,0.18726367 Z M181.451155,0 L110.436085,106.528646 L110.260904,106.528646 L110.260904,0 L91.1962916,28.8627079 L39.5901562,106.528646 L39.0646104,106.528646 L39.0646104,0 L20,0 L20,131.186991 L43.4381142,131.186991 L91.1962916,62.2741026 L91.1962916,131.186991 L114.628365,131.186991 L205.070491,0 L181.451155,0 Z" id="WAQ" fill-opacity="0.5" fill="#50E3C2"></path>
                        <path d="M388,75.9468793 C388,84.4643391 386.453568,92.4743743 383.360703,100.001151 C380.273879,107.515845 375.984945,114.136508 370.512025,119.851058 L385.553495,141.186991 L364.561886,141.186991 L357.397554,130.869388 L354.069102,126.145522 L347.593416,117.04815 C349.925145,115.417148 352.172305,113.610963 354.328853,111.629596 C356.485402,109.64219 358.382197,107.370867 360.013201,104.809589 C362.35097,101.662358 364.447111,97.7539915 366.307662,93.0844898 C368.295069,87.4967954 369.279712,81.836612 369.279712,76.1160203 C369.279712,69.3624614 368.113847,63.0015509 365.788157,57.0514099 C363.456428,51.1073108 360.188382,45.8881019 355.99006,41.399825 C351.797779,36.9115465 346.808118,33.353543 341.0392,30.7318577 C335.258202,28.1041306 328.939577,26.7993284 322.053119,26.7993284 C312.146287,26.7993284 303.459688,29.3002001 295.99332,34.3140228 C288.526951,39.3278469 282.872808,46.3834442 279.02485,55.4808146 C277.744211,58.5193128 276.723323,61.7450746 275.962189,65.1943423 C275.207096,68.6315293 274.826528,72.159328 274.826528,75.7716979 C274.826528,79.1545185 275.207096,82.5615021 275.962189,86.004731 C276.723323,89.4479584 277.744211,92.7945337 279.02485,96.0625812 C282.987583,105.039137 288.671929,112.004124 296.083931,116.96358 C303.483851,121.923036 312.146287,124.399743 322.053119,124.399743 C328.583172,124.399743 334.418537,123.294287 339.553176,121.071291 L349.520415,135.412033 C341.123772,139.266033 331.972033,141.186991 322.053119,141.186991 C312.961789,141.186991 304.420168,139.465377 296.434294,136.02819 C288.442382,132.597044 281.447191,127.897339 275.436643,121.947199 C269.432138,115.99706 264.708269,109.062278 261.271082,101.130772 C257.833895,93.2053063 256.112282,84.7482548 256.112282,75.7716979 C256.112282,66.5595529 257.833895,57.9575233 261.271082,49.9716496 C264.708269,41.9797371 269.407975,35.0147499 275.352074,29.0646104 C281.302213,23.1205114 288.297404,18.4510112 296.343683,15.0742309 C304.389965,11.6914103 312.961789,10 322.053119,10 C331.265266,10 339.897499,11.7216137 347.943779,15.1588022 C355.99006,18.6080699 362.985249,23.2896524 368.94143,29.2458322 C374.885529,35.1899313 379.542948,42.1609588 382.931809,50.1468325 C386.31463,58.1327047 388,66.7286939 388,75.9468793 Z M220.429565,10.1872637 L130.343842,141.186991 L153.781957,141.186991 L224.627886,34.8335281 L224.803068,34.8335281 L224.803068,141.186991 L243.867679,141.186991 L243.867679,10.1872637 L220.429565,10.1872637 Z M171.451155,10 L100.436085,116.528646 L100.260904,116.528646 L100.260904,10 L81.1962916,38.8627079 L29.5901562,116.528646 L29.0646104,116.528646 L29.0646104,10 L10,10 L10,141.186991 L33.4381142,141.186991 L81.1962916,72.2741026 L81.1962916,141.186991 L104.628365,141.186991 L195.070491,10 L171.451155,10 Z" id="WAQ" fill="#FFFFFF"></path>
                    </g>
                </g>
            </g>
        </g>
    </g>
</svg>