<?xml version="1.0" encoding="UTF-8" standalone="no"?><svg xmlns="http://www.w3.org/2000/svg" xmlns:xlink="http://www.w3.org/1999/xlink"><symbol viewBox="0 0 44 270" id="arrow-left"><title>arrow-left</title><g transform="matrix(-1 0 0 1 43 1)" stroke="#FFF" stroke-width="2" fill-rule="evenodd" stroke-linecap="square"><path d="M.5.5l41 133M.5 267.5l41-133"/></g></symbol><symbol viewBox="0 0 44 270" id="arrow-right"><title>arrow-right</title><g transform="translate(1 1)" stroke="#FFF" stroke-width="2" fill-rule="evenodd" stroke-linecap="square"><path d="M.5.5l41 133M.5 267.5l41-133"/></g></symbol><symbol viewBox="0 0 43 35" id="icon-date"><title>icon-date</title><path d="M38.947 35h-35a3.684 3.684 0 0 1-3.684-3.684V3.684A3.684 3.684 0 0 1 3.947 0h35a3.684 3.684 0 0 1 3.685 3.684v27.632A3.684 3.684 0 0 1 38.947 35zM40.79 3.684a1.843 1.843 0 0 0-1.842-1.842h-35a1.843 1.843 0 0 0-1.842 1.842v5.527H40.79V3.684zm0 7.369H2.105v20.263c0 1.017.826 1.842 1.842 1.842h35a1.843 1.843 0 0 0 1.842-1.842V11.053zm-3.684 12.894h-1.842a.92.92 0 0 1-.92-.92v-1.843c0-.508.412-.92.92-.92h1.842a.92.92 0 0 1 .921.92v1.842a.92.92 0 0 1-.92.921zm0-6.447h-1.842a.92.92 0 0 1-.92-.921v-1.842a.92.92 0 0 1 .92-.921h1.842a.92.92 0 0 1 .921.92v1.843a.92.92 0 0 1-.92.921zm-7.368 6.447h-1.842a.92.92 0 0 1-.921-.92v-1.843c0-.508.412-.92.92-.92h1.843a.92.92 0 0 1 .92.92v1.842a.92.92 0 0 1-.92.921zm0-6.447h-1.842a.92.92 0 0 1-.921-.921v-1.842a.92.92 0 0 1 .92-.921h1.843a.92.92 0 0 1 .92.92v1.843a.92.92 0 0 1-.92.921zm-7.369 6.447h-1.842a.92.92 0 0 1-.92-.92v-1.843a.92.92 0 0 1 .92-.92h1.842a.92.92 0 0 1 .921.92v1.842a.92.92 0 0 1-.92.921zm0-6.447h-1.842a.92.92 0 0 1-.92-.921v-1.842a.92.92 0 0 1 .92-.921h1.842a.92.92 0 0 1 .921.92v1.843a.92.92 0 0 1-.92.921zM15 30.395h-1.842a.92.92 0 0 1-.921-.921v-1.842a.92.92 0 0 1 .92-.921H15a.92.92 0 0 1 .921.92v1.843a.92.92 0 0 1-.921.92zm0-6.448h-1.842a.92.92 0 0 1-.921-.92v-1.843a.92.92 0 0 1 .92-.92H15a.92.92 0 0 1 .921.92v1.842a.92.92 0 0 1-.921.921zm0-6.447h-1.842a.92.92 0 0 1-.921-.921v-1.842a.92.92 0 0 1 .92-.921H15a.92.92 0 0 1 .921.92v1.843A.92.92 0 0 1 15 17.5zM7.632 30.395H5.789a.92.92 0 0 1-.92-.921v-1.842a.92.92 0 0 1 .92-.921h1.843a.92.92 0 0 1 .92.92v1.843a.92.92 0 0 1-.92.92zm0-6.448H5.789a.92.92 0 0 1-.92-.92v-1.843a.92.92 0 0 1 .92-.92h1.843a.92.92 0 0 1 .92.92v1.842a.92.92 0 0 1-.92.921zm12.894 2.764h1.842a.92.92 0 0 1 .921.92v1.843a.92.92 0 0 1-.92.92h-1.843a.92.92 0 0 1-.92-.92v-1.842a.92.92 0 0 1 .92-.921z" fill-rule="evenodd"/></symbol><symbol viewBox="0 0 11 22" id="icon-facebook"><title>icon-facebook</title><path d="M10.19 7.47H6.795V5.245c0-.836.555-1.03.945-1.03h2.396V.536l-3.3-.013C3.173.524 2.34 3.266 2.34 5.02v2.45H.222v3.789H2.34v10.719h4.455V11.259h3.007l.388-3.788z" fill-rule="evenodd"/></symbol><symbol viewBox="0 0 23 23" id="icon-instagram"><title>icon-instagram</title><g fill-rule="evenodd"><path d="M11.592 5.727c-3.22 0-5.888 2.571-5.888 5.773 0 3.202 2.622 5.773 5.888 5.773s5.888-2.616 5.888-5.773c0-3.157-2.668-5.773-5.888-5.773zm0 9.471c-2.07 0-3.772-1.669-3.772-3.698 0-2.03 1.702-3.698 3.772-3.698s3.772 1.669 3.772 3.698c0 2.03-1.702 3.698-3.772 3.698z"/><ellipse cx="17.71" cy="5.592" rx="1.334" ry="1.308"/><path d="M21.16 2.21C19.964.992 18.262.36 16.33.36H6.854C2.852.36.184 2.977.184 6.9v9.245c0 1.94.644 3.608 1.932 4.826 1.242 1.172 2.898 1.758 4.784 1.758h9.384c1.978 0 3.634-.631 4.83-1.758C22.356 19.798 23 18.129 23 16.19V6.9c0-1.894-.644-3.518-1.84-4.69zm-.276 13.98c0 1.398-.414 2.526-1.242 3.292-.828.767-1.978 1.173-3.358 1.173H6.9c-1.38 0-2.53-.406-3.358-1.173-.828-.811-1.242-1.939-1.242-3.337V6.9c0-1.353.414-2.48 1.242-3.292C4.324 2.84 5.52 2.435 6.9 2.435h9.476c1.38 0 2.53.406 3.358 1.218.782.812 1.242 1.94 1.242 3.247v9.29h-.092z"/></g></symbol><symbol viewBox="0 0 28 40" id="icon-place"><title>icon-place</title><path d="M13.605.873C6.092.873 0 6.965 0 14.478c0 10.092 13.605 25.48 13.605 25.48s13.606-15.389 13.606-25.48c0-7.513-6.092-13.605-13.606-13.605zm0 19.346a5.74 5.74 0 1 1 0-11.481 5.74 5.74 0 1 1 0 11.48z" fill-rule="evenodd"/></symbol><symbol viewBox="0 0 21 18" id="icon-twitter"><title>icon-twitter</title><path d="M18.526 3.507a4.26 4.26 0 0 0 1.87-2.353 8.514 8.514 0 0 1-2.7 1.033 4.253 4.253 0 0 0-7.247 3.879 12.076 12.076 0 0 1-8.767-4.444 4.231 4.231 0 0 0-.576 2.138A4.25 4.25 0 0 0 2.998 7.3a4.24 4.24 0 0 1-1.926-.532v.054a4.256 4.256 0 0 0 3.411 4.17 4.276 4.276 0 0 1-1.92.072 4.258 4.258 0 0 0 3.972 2.954A8.532 8.532 0 0 1 .24 15.779a12.035 12.035 0 0 0 6.52 1.91c7.822 0 12.1-6.48 12.1-12.1 0-.184-.004-.368-.012-.55a8.614 8.614 0 0 0 2.122-2.201 8.462 8.462 0 0 1-2.443.67z" fill-rule="evenodd"/></symbol><symbol preserveAspectRatio="xMidYMid" viewBox="0 0 514 86" id="logo"><path d="M468.512 86.037c-24.032-.114-45.217-17.563-45.098-43.227.122-25.659 21.47-42.911 45.502-42.802 24.036.113 45.212 17.563 45.094 43.223-.122 25.659-21.462 42.915-45.498 42.806zm.306-65.088c-12.332-.057-23.29 8.799-23.351 21.966-.061 13.167 10.811 22.125 23.143 22.181 12.332.057 23.285-8.799 23.351-21.966.061-13.168-10.811-22.125-23.143-22.181zM310.588 2.342h77.02v19.223h-77.02V2.342zm59.564 49.247h-38.335v12.799h55.791v19.446h-77.02V32.802h59.564v18.787zM244.596 83.614H188.56V2.284h51.846c14.441 0 24.983 8.824 24.983 22.504 0 5.143-1.877 10.145-5.63 12.796 6.931 4.112 10.974 10.145 10.974 20.439 0 14.266-11.553 25.591-26.137 25.591zm-5.043-61.973h-30.045v10.993h30.776c2.19 0 4.377-2.82 4.377-5.494 0-2.081-1.314-5.499-5.108-5.499zm3.913 29.703H209.48v12.772l34.569.004c3.357 0 5.981-2.384 5.981-6.242 0-3.713-2.77-6.534-6.564-6.534zM118.034 2.285h22.16v81.33h-22.16V2.285zM-.001 2.281h21.234v61.884h54.305v19.446H-.001V2.281z" class="hcls-2" fill-rule="evenodd"/></symbol><symbol viewBox="0 0 509 159" id="snqc-logo"><title>Group</title><g fill-rule="evenodd"><path d="M9.362 40.177c3.009 4.868 7.594 7.303 14.042 7.303 5.731 0 8.31-2.578 8.31-5.585 0-2.148-1.147-3.58-3.01-4.583-1.002-.715-3.295-1.718-4.728-2.148-1.29-.572-4.585-1.576-6.16-2.292-8.74-3.15-13.468-7.733-13.468-16.182 0-4.726 1.719-8.592 5.301-11.455C13.232 2.37 17.672.938 22.83.938c8.023 0 14.185 3.007 18.482 9.165l-8.166 6.3c-2.293-2.863-5.588-4.296-10.028-4.296-4.012 0-6.735 1.862-6.735 4.583 0 1.862.43 3.007 2.15 4.01.859.43 1.718.859 2.435 1.145l4.012 1.29c1.862.572 3.439 1.145 4.729 1.717 10.172 3.866 14.184 8.593 14.184 16.611 0 10.31-7.02 17.041-20.774 17.041C11.8 58.504 4.063 53.493.195 46.19l9.167-6.013zM48.046 37.6c0-6.3 2.149-11.455 6.16-15.321 4.012-3.866 9.313-5.87 15.617-5.87 6.16 0 11.175 2.004 14.9 5.87 3.869 3.866 5.732 8.735 5.732 14.606 0 1.289-.143 2.578-.143 3.866H59.794c.287 4.726 4.442 7.877 10.746 7.877 3.725 0 7.02-1.29 9.887-3.866l7.02 6.587c-4.729 4.868-10.603 7.303-17.337 7.303-6.591 0-11.892-1.86-16.047-5.728-4.012-3.866-6.017-8.88-6.017-15.18V37.6zm30.517-4.583c0-3.722-3.868-6.73-8.74-6.73-5.158 0-9.456 3.006-9.743 6.73h18.483zM94.61 57.79V17.552h11.892v5.012c1.577-3.58 5.589-5.87 10.46-5.87 5.444 0 9.168 2.148 10.889 6.444 2.292-4.297 6.734-6.445 13.467-6.445 9.17 0 14.327 6.301 14.327 16.755v24.487h-11.892V34.88c0-4.726-2.15-7.59-6.017-7.59-3.868 0-6.735 3.294-6.735 8.019v22.626H119.11V34.88c0-4.726-2.15-7.59-6.017-7.59-3.868 0-6.591 3.294-6.591 8.019v22.626H94.609v-.145h.001zM177.567 32.73c5.874-.571 8.166-1.145 8.166-3.722 0-2.291-1.862-3.294-5.444-3.294-4.299 0-7.738 1.718-10.746 5.012l-7.02-6.014c4.298-5.729 10.028-8.592 17.622-8.592 10.746 0 17.337 5.011 17.337 13.604v15.321c0 2.864.86 3.15 3.009 3.15h.287v9.452c-1.147.572-2.722.859-4.73.859-2.292 0-4.154-.572-5.73-1.718-.86-.716-1.434-1.576-1.863-2.578-2.58 3.15-7.164 4.726-13.611 4.726-9.026 0-15.044-4.868-15.044-12.315.001-8.449 5.444-12.601 17.767-13.89zm-.86 16.326c5.73 0 9.025-2.435 9.025-7.16V38.89c-.43.43-1.003.572-2.293 1.002l-1.433.287c-.86.143-3.152.43-4.155.572-4.155.572-6.591 1.718-6.591 4.583.147 2.433 1.865 3.722 5.446 3.722zM211.522.655a6.725 6.725 0 0 1 6.734 6.73 6.724 6.724 0 0 1-6.734 6.732 6.725 6.725 0 0 1-6.735-6.731c-.142-3.868 3.01-6.731 6.735-6.731zm-5.874 57.135V17.552h11.892v40.24h-11.892v-.002zM222.268 57.79V17.552h11.892v5.012c1.719-3.58 6.304-5.87 11.749-5.87 9.886 0 15.473 6.3 15.473 16.754v24.487H249.49V34.88c0-4.726-2.58-7.59-7.307-7.59-4.586 0-7.881 3.294-7.881 8.019v22.626h-12.036v-.145h.002zM265.393 37.6c0-6.3 2.15-11.455 6.16-15.321 4.012-3.866 9.313-5.87 15.617-5.87 6.16 0 11.175 2.004 14.901 5.87 3.868 3.866 5.732 8.735 5.732 14.606 0 1.289-.144 2.578-.144 3.866h-30.517c.287 4.726 4.442 7.877 10.746 7.877 3.724 0 7.02-1.29 9.886-3.866l7.02 6.587c-4.729 4.868-10.602 7.303-17.337 7.303-6.59 0-11.892-1.86-16.047-5.728-4.011-3.866-6.017-8.88-6.017-15.18V37.6zm30.517-4.583c0-3.722-3.867-6.73-8.74-6.73-5.157 0-9.456 3.006-9.743 6.73h18.483z"/><g transform="translate(0 15.588)"><path d="M.193 122.252v-52.41h15.473v6.587c2.15-4.583 8.166-7.733 15.33-7.733 12.751 0 20.058 8.162 20.058 21.766v31.79H35.581v-29.93c0-6.156-3.439-9.88-9.6-9.88-5.873 0-10.315 4.296-10.315 10.453v29.356H.193v.001zM56.93 69.84h15.76v29.93c0 6.587 3.867 9.737 9.6 9.737 5.73 0 9.599-3.007 9.599-9.738V69.84h15.76v31.217c0 7.303-2.436 12.888-7.307 16.754-4.729 3.866-10.746 5.87-18.053 5.87-7.163 0-13.182-2.004-18.053-5.87-4.728-3.866-7.163-9.45-7.163-16.754V69.84h-.144zM113.237 122.252v-52.41h15.473v6.587c2.006-4.583 7.307-7.733 13.61-7.733 7.02 0 11.893 2.863 14.186 8.305 2.865-5.442 8.74-8.305 17.479-8.305 11.892 0 18.625 8.162 18.625 21.766v31.79h-15.473v-29.93c0-6.156-2.865-9.88-7.738-9.88-5.157 0-8.74 4.296-8.74 10.453v29.356h-15.473V92.32c0-6.157-2.865-9.881-7.737-9.881-4.871 0-8.597 4.296-8.597 10.453v29.356h-15.615v.003zM198.485 95.903c0-8.162 2.721-14.893 8.023-19.904 5.3-5.155 12.177-7.59 20.345-7.59 8.023 0 14.47 2.578 19.486 7.733 5.016 5.155 7.45 11.313 7.45 18.903 0 1.717-.143 3.437-.143 5.011H213.96c.287 6.301 5.731 10.31 13.897 10.31 4.871 0 9.17-1.718 12.752-5.155l9.026 8.592c-6.161 6.301-13.755 9.595-22.495 9.595-8.597 0-15.473-2.435-20.774-7.446-5.302-5.012-7.881-11.6-7.881-19.762v-.287zm39.83-5.872c0-4.868-5.158-8.735-11.318-8.735-6.735 0-12.322 3.866-12.752 8.735h24.07zM219.69 64.828l5.157-15.036h16.763l-10.459 15.036H219.69zM259.663 122.252v-52.41h15.473v7.16c2.436-5.3 8.023-8.306 15.188-8.306 1.003 0 2.436.143 4.011.287v14.606c-1.575-.287-3.295-.572-5.157-.572-8.884 0-14.042 5.011-14.042 13.604v25.633l-15.473-.002zM374.712 77.143V70.27h15.474v72.316h-15.474v-26.921c-1.576 4.583-7.737 7.733-15.616 7.733-7.45 0-13.611-2.578-18.625-7.733-4.871-5.299-7.45-11.743-7.45-19.333 0-7.59 2.436-14.034 7.45-19.189 5.014-5.298 11.175-7.877 18.625-7.877 8.023.002 14.04 3.296 15.616 7.877zm-3.152 28.64c2.722-2.578 4.012-5.728 4.012-9.307 0-3.581-1.29-6.731-4.012-9.308-2.58-2.578-5.873-3.866-9.6-3.866-3.723 0-6.876 1.29-9.455 3.866-2.58 2.435-3.868 5.585-3.868 9.308 0 3.58 1.29 6.73 3.868 9.307 2.58 2.435 5.732 3.723 9.456 3.723 3.868.001 7.02-1.288 9.6-3.723zM396.203 70.27h15.76v29.93c0 6.587 3.868 9.738 9.6 9.738 5.73 0 9.599-3.007 9.599-9.738V70.27h15.76v31.217c0 7.303-2.436 12.889-7.307 16.754-4.729 3.866-10.746 5.871-18.053 5.871-7.163 0-13.182-2.005-18.052-5.87-4.73-3.866-7.164-9.452-7.164-16.755V70.27h-.143zM452.94 96.332c0-8.162 2.722-14.893 8.023-19.904 5.301-5.155 12.178-7.59 20.346-7.59 8.022 0 14.47 2.578 19.486 7.733 5.014 5.155 7.45 11.312 7.45 18.902 0 1.718-.143 3.437-.143 5.012h-39.687c.287 6.3 5.732 10.31 13.898 10.31 4.87 0 9.17-1.718 12.752-5.155l9.025 8.592c-6.16 6.3-13.754 9.595-22.494 9.595-8.597 0-15.473-2.435-20.775-7.447-5.3-5.011-7.88-11.599-7.88-19.761v-.287zm39.687-6.014c0-4.868-5.158-8.735-11.318-8.735-6.735 0-12.321 3.865-12.752 8.735h24.07zM305.081 122.394h-18.34L348.637.962h18.195z"/></g></g></symbol><symbol viewBox="0 0 398 152" id="waq-logo"><title>waq-logo</title><g fill-rule="evenodd"><path d="M378 85.947c0 8.517-1.546 16.527-4.64 24.054-3.086 7.515-7.375 14.136-12.848 19.85l15.041 21.336h-20.991l-7.164-10.318-3.329-4.723-6.476-9.098a65.14 65.14 0 0 0 6.736-5.418 34.215 34.215 0 0 0 5.684-6.82c2.338-3.148 4.434-7.056 6.295-11.726 1.987-5.587 2.972-11.247 2.972-16.968 0-6.754-1.166-13.114-3.492-19.065-2.332-5.944-5.6-11.163-9.798-15.651-4.192-4.488-9.182-8.046-14.95-10.668-5.782-2.628-12.1-3.933-18.987-3.933-9.907 0-18.593 2.501-26.06 7.515-7.466 5.014-13.12 12.07-16.968 21.167-1.28 3.038-2.302 6.264-3.063 9.713a49.167 49.167 0 0 0-1.135 10.578c0 3.383.38 6.79 1.135 10.233a67.34 67.34 0 0 0 3.063 10.058c3.963 8.976 9.647 15.941 17.059 20.9 7.4 4.96 16.062 7.437 25.97 7.437 6.53 0 12.365-1.106 17.5-3.329l9.966 14.341c-8.396 3.854-17.548 5.775-27.467 5.775-9.091 0-17.633-1.722-25.619-5.159-7.992-3.431-14.987-8.13-20.997-14.08-6.005-5.95-10.729-12.886-14.166-20.817-3.437-7.926-5.159-16.383-5.159-25.36 0-9.211 1.722-17.813 5.16-25.8 3.436-7.991 8.136-14.956 14.08-20.906 5.95-5.944 12.945-10.614 20.992-13.99C294.39 21.69 302.962 20 312.054 20c9.211 0 17.843 1.722 25.89 5.159 8.046 3.45 15.041 8.13 20.997 14.087 5.945 5.944 10.602 12.915 13.99 20.9 3.384 7.987 5.069 16.583 5.069 25.8zm-167.57-65.76l-90.086 131h23.438l70.846-106.353h.175v106.353h19.065v-131H210.43zM161.45 20L90.436 126.529h-.175V20L71.196 48.863 19.59 126.529h-.525V20H0v131.187h23.438l47.758-68.913v68.913h23.432L185.07 20h-23.619z" fill-opacity=".5"/><path d="M398 65.947c0 8.517-1.546 16.527-4.64 24.054-3.086 7.515-7.375 14.136-12.848 19.85l15.041 21.336h-20.991l-7.164-10.318-3.329-4.723-6.476-9.098a65.14 65.14 0 0 0 6.736-5.418 34.215 34.215 0 0 0 5.684-6.82c2.338-3.148 4.434-7.056 6.295-11.726 1.987-5.587 2.972-11.247 2.972-16.968 0-6.754-1.166-13.114-3.492-19.065-2.332-5.944-5.6-11.163-9.798-15.651-4.192-4.488-9.182-8.046-14.95-10.668-5.782-2.628-12.1-3.933-18.987-3.933-9.907 0-18.593 2.501-26.06 7.515-7.466 5.014-13.12 12.07-16.968 21.167-1.28 3.038-2.302 6.264-3.063 9.713a49.167 49.167 0 0 0-1.135 10.578c0 3.383.38 6.79 1.135 10.233a67.34 67.34 0 0 0 3.063 10.058c3.963 8.976 9.647 15.941 17.059 20.9 7.4 4.96 16.062 7.437 25.97 7.437 6.53 0 12.365-1.106 17.5-3.329l9.966 14.341c-8.396 3.854-17.548 5.775-27.467 5.775-9.091 0-17.633-1.722-25.619-5.159-7.992-3.431-14.987-8.13-20.997-14.08-6.005-5.95-10.729-12.886-14.166-20.817-3.437-7.926-5.159-16.383-5.159-25.36 0-9.211 1.722-17.813 5.16-25.8 3.436-7.991 8.136-14.956 14.08-20.906 5.95-5.944 12.945-10.614 20.992-13.99C314.39 1.69 322.962 0 332.054 0c9.211 0 17.843 1.722 25.89 5.159 8.046 3.45 15.041 8.13 20.997 14.087 5.945 5.944 10.602 12.915 13.99 20.9 3.384 7.987 5.069 16.583 5.069 25.8zM230.43.187l-90.086 131h23.438l70.846-106.353h.175v106.353h19.065v-131H230.43zM181.45 0l-71.015 106.529h-.175V0L91.196 28.863 39.59 106.529h-.525V0H20v131.187h23.438l47.758-68.913v68.913h23.432L205.07 0h-23.619z" fill-opacity=".5"/><path d="M388 75.947c0 8.517-1.546 16.527-4.64 24.054-3.086 7.515-7.375 14.136-12.848 19.85l15.041 21.336h-20.991l-7.164-10.318-3.329-4.723-6.476-9.098a65.14 65.14 0 0 0 6.736-5.418 34.215 34.215 0 0 0 5.684-6.82c2.338-3.148 4.434-7.056 6.295-11.726 1.987-5.587 2.972-11.247 2.972-16.968 0-6.754-1.166-13.114-3.492-19.065-2.332-5.944-5.6-11.163-9.798-15.651-4.192-4.488-9.182-8.046-14.95-10.668-5.782-2.628-12.1-3.933-18.987-3.933-9.907 0-18.593 2.501-26.06 7.515-7.466 5.014-13.12 12.07-16.968 21.167-1.28 3.038-2.302 6.264-3.063 9.713a49.167 49.167 0 0 0-1.135 10.578c0 3.383.38 6.79 1.135 10.233a67.34 67.34 0 0 0 3.063 10.058c3.963 8.976 9.647 15.941 17.059 20.9 7.4 4.96 16.062 7.437 25.97 7.437 6.53 0 12.365-1.106 17.5-3.329l9.966 14.341c-8.396 3.854-17.548 5.775-27.467 5.775-9.091 0-17.633-1.722-25.619-5.159-7.992-3.431-14.987-8.13-20.997-14.08-6.005-5.95-10.729-12.886-14.166-20.817-3.437-7.926-5.159-16.383-5.159-25.36 0-9.211 1.722-17.813 5.16-25.8 3.436-7.991 8.136-14.956 14.08-20.906 5.95-5.944 12.945-10.614 20.992-13.99C304.39 11.69 312.962 10 322.054 10c9.211 0 17.843 1.722 25.89 5.159 8.046 3.45 15.041 8.13 20.997 14.087 5.945 5.944 10.602 12.915 13.99 20.9 3.384 7.987 5.069 16.583 5.069 25.8zm-167.57-65.76l-90.086 131h23.438l70.846-106.353h.175v106.353h19.065v-131H220.43zM171.45 10l-71.015 106.529h-.175V10L81.196 38.863 29.59 116.529h-.525V10H10v131.187h23.438l47.758-68.913v68.913h23.432L195.07 10h-23.619z"/></g></symbol></svg>