<?xml version="1.0" encoding="UTF-8" standalone="no"?><svg xmlns="http://www.w3.org/2000/svg" xmlns:xlink="http://www.w3.org/1999/xlink"><symbol viewBox="0 0 44 270" id="arrow-left"><title>arrow-left</title><g transform="matrix(-1 0 0 1 43 1)" stroke="#FFF" stroke-width="2" fill-rule="evenodd" stroke-linecap="square"><path d="M.5.5l41 133M.5 267.5l41-133"/></g></symbol><symbol viewBox="0 0 44 270" id="arrow-right"><title>arrow-right</title><g transform="translate(1 1)" stroke="#FFF" stroke-width="2" fill-rule="evenodd" stroke-linecap="square"><path d="M.5.5l41 133M.5 267.5l41-133"/></g></symbol><symbol viewBox="0 0 43 35" id="icon-date"><title>icon-date</title><path d="M38.947 35h-35a3.684 3.684 0 0 1-3.684-3.684V3.684A3.684 3.684 0 0 1 3.947 0h35a3.684 3.684 0 0 1 3.685 3.684v27.632A3.684 3.684 0 0 1 38.947 35zM40.79 3.684a1.843 1.843 0 0 0-1.842-1.842h-35a1.843 1.843 0 0 0-1.842 1.842v5.527H40.79V3.684zm0 7.369H2.105v20.263c0 1.017.826 1.842 1.842 1.842h35a1.843 1.843 0 0 0 1.842-1.842V11.053zm-3.684 12.894h-1.842a.92.92 0 0 1-.92-.92v-1.843c0-.508.412-.92.92-.92h1.842a.92.92 0 0 1 .921.92v1.842a.92.92 0 0 1-.92.921zm0-6.447h-1.842a.92.92 0 0 1-.92-.921v-1.842a.92.92 0 0 1 .92-.921h1.842a.92.92 0 0 1 .921.92v1.843a.92.92 0 0 1-.92.921zm-7.368 6.447h-1.842a.92.92 0 0 1-.921-.92v-1.843c0-.508.412-.92.92-.92h1.843a.92.92 0 0 1 .92.92v1.842a.92.92 0 0 1-.92.921zm0-6.447h-1.842a.92.92 0 0 1-.921-.921v-1.842a.92.92 0 0 1 .92-.921h1.843a.92.92 0 0 1 .92.92v1.843a.92.92 0 0 1-.92.921zm-7.369 6.447h-1.842a.92.92 0 0 1-.92-.92v-1.843a.92.92 0 0 1 .92-.92h1.842a.92.92 0 0 1 .921.92v1.842a.92.92 0 0 1-.92.921zm0-6.447h-1.842a.92.92 0 0 1-.92-.921v-1.842a.92.92 0 0 1 .92-.921h1.842a.92.92 0 0 1 .921.92v1.843a.92.92 0 0 1-.92.921zM15 30.395h-1.842a.92.92 0 0 1-.921-.921v-1.842a.92.92 0 0 1 .92-.921H15a.92.92 0 0 1 .921.92v1.843a.92.92 0 0 1-.921.92zm0-6.448h-1.842a.92.92 0 0 1-.921-.92v-1.843a.92.92 0 0 1 .92-.92H15a.92.92 0 0 1 .921.92v1.842a.92.92 0 0 1-.921.921zm0-6.447h-1.842a.92.92 0 0 1-.921-.921v-1.842a.92.92 0 0 1 .92-.921H15a.92.92 0 0 1 .921.92v1.843A.92.92 0 0 1 15 17.5zM7.632 30.395H5.789a.92.92 0 0 1-.92-.921v-1.842a.92.92 0 0 1 .92-.921h1.843a.92.92 0 0 1 .92.92v1.843a.92.92 0 0 1-.92.92zm0-6.448H5.789a.92.92 0 0 1-.92-.92v-1.843a.92.92 0 0 1 .92-.92h1.843a.92.92 0 0 1 .92.92v1.842a.92.92 0 0 1-.92.921zm12.894 2.764h1.842a.92.92 0 0 1 .921.92v1.843a.92.92 0 0 1-.92.92h-1.843a.92.92 0 0 1-.92-.92v-1.842a.92.92 0 0 1 .92-.921z" fill-rule="evenodd"/></symbol><symbol viewBox="0 0 11 22" id="icon-facebook"><title>icon-facebook</title><path d="M10.19 7.47H6.795V5.245c0-.836.555-1.03.945-1.03h2.396V.536l-3.3-.013C3.173.524 2.34 3.266 2.34 5.02v2.45H.222v3.789H2.34v10.719h4.455V11.259h3.007l.388-3.788z" fill-rule="evenodd"/></symbol><symbol viewBox="0 0 23 23" id="icon-instagram"><title>icon-instagram</title><g fill-rule="evenodd"><path d="M11.592 5.727c-3.22 0-5.888 2.571-5.888 5.773 0 3.202 2.622 5.773 5.888 5.773s5.888-2.616 5.888-5.773c0-3.157-2.668-5.773-5.888-5.773zm0 9.471c-2.07 0-3.772-1.669-3.772-3.698 0-2.03 1.702-3.698 3.772-3.698s3.772 1.669 3.772 3.698c0 2.03-1.702 3.698-3.772 3.698z"/><ellipse cx="17.71" cy="5.592" rx="1.334" ry="1.308"/><path d="M21.16 2.21C19.964.992 18.262.36 16.33.36H6.854C2.852.36.184 2.977.184 6.9v9.245c0 1.94.644 3.608 1.932 4.826 1.242 1.172 2.898 1.758 4.784 1.758h9.384c1.978 0 3.634-.631 4.83-1.758C22.356 19.798 23 18.129 23 16.19V6.9c0-1.894-.644-3.518-1.84-4.69zm-.276 13.98c0 1.398-.414 2.526-1.242 3.292-.828.767-1.978 1.173-3.358 1.173H6.9c-1.38 0-2.53-.406-3.358-1.173-.828-.811-1.242-1.939-1.242-3.337V6.9c0-1.353.414-2.48 1.242-3.292C4.324 2.84 5.52 2.435 6.9 2.435h9.476c1.38 0 2.53.406 3.358 1.218.782.812 1.242 1.94 1.242 3.247v9.29h-.092z"/></g></symbol><symbol viewBox="0 0 28 40" id="icon-place"><title>icon-place</title><path d="M13.605.873C6.092.873 0 6.965 0 14.478c0 10.092 13.605 25.48 13.605 25.48s13.606-15.389 13.606-25.48c0-7.513-6.092-13.605-13.606-13.605zm0 19.346a5.74 5.74 0 1 1 0-11.481 5.74 5.74 0 1 1 0 11.48z" fill-rule="evenodd"/></symbol><symbol viewBox="0 0 21 18" id="icon-twitter"><title>icon-twitter</title><path d="M18.526 3.507a4.26 4.26 0 0 0 1.87-2.353 8.514 8.514 0 0 1-2.7 1.033 4.253 4.253 0 0 0-7.247 3.879 12.076 12.076 0 0 1-8.767-4.444 4.231 4.231 0 0 0-.576 2.138A4.25 4.25 0 0 0 2.998 7.3a4.24 4.24 0 0 1-1.926-.532v.054a4.256 4.256 0 0 0 3.411 4.17 4.276 4.276 0 0 1-1.92.072 4.258 4.258 0 0 0 3.972 2.954A8.532 8.532 0 0 1 .24 15.779a12.035 12.035 0 0 0 6.52 1.91c7.822 0 12.1-6.48 12.1-12.1 0-.184-.004-.368-.012-.55a8.614 8.614 0 0 0 2.122-2.201 8.462 8.462 0 0 1-2.443.67z" fill-rule="evenodd"/></symbol><symbol preserveAspectRatio="xMidYMid" viewBox="0 0 514 86" id="logo"><path d="M468.512 86.037c-24.032-.114-45.217-17.563-45.098-43.227.122-25.659 21.47-42.911 45.502-42.802 24.036.113 45.212 17.563 45.094 43.223-.122 25.659-21.462 42.915-45.498 42.806zm.306-65.088c-12.332-.057-23.29 8.799-23.351 21.966-.061 13.167 10.811 22.125 23.143 22.181 12.332.057 23.285-8.799 23.351-21.966.061-13.168-10.811-22.125-23.143-22.181zM310.588 2.342h77.02v19.223h-77.02V2.342zm59.564 49.247h-38.335v12.799h55.791v19.446h-77.02V32.802h59.564v18.787zM244.596 83.614H188.56V2.284h51.846c14.441 0 24.983 8.824 24.983 22.504 0 5.143-1.877 10.145-5.63 12.796 6.931 4.112 10.974 10.145 10.974 20.439 0 14.266-11.553 25.591-26.137 25.591zm-5.043-61.973h-30.045v10.993h30.776c2.19 0 4.377-2.82 4.377-5.494 0-2.081-1.314-5.499-5.108-5.499zm3.913 29.703H209.48v12.772l34.569.004c3.357 0 5.981-2.384 5.981-6.242 0-3.713-2.77-6.534-6.564-6.534zM118.034 2.285h22.16v81.33h-22.16V2.285zM-.001 2.281h21.234v61.884h54.305v19.446H-.001V2.281z" class="hcls-2" fill-rule="evenodd"/></symbol><symbol viewBox="0 0 398 152" id="waq-logo"><title>waq-logo</title><g fill-rule="evenodd"><path d="M378 85.947c0 8.517-1.546 16.527-4.64 24.054-3.086 7.515-7.375 14.136-12.848 19.85l15.041 21.336h-20.991l-7.164-10.318-3.329-4.723-6.476-9.098a65.14 65.14 0 0 0 6.736-5.418 34.215 34.215 0 0 0 5.684-6.82c2.338-3.148 4.434-7.056 6.295-11.726 1.987-5.587 2.972-11.247 2.972-16.968 0-6.754-1.166-13.114-3.492-19.065-2.332-5.944-5.6-11.163-9.798-15.651-4.192-4.488-9.182-8.046-14.95-10.668-5.782-2.628-12.1-3.933-18.987-3.933-9.907 0-18.593 2.501-26.06 7.515-7.466 5.014-13.12 12.07-16.968 21.167-1.28 3.038-2.302 6.264-3.063 9.713a49.167 49.167 0 0 0-1.135 10.578c0 3.383.38 6.79 1.135 10.233a67.34 67.34 0 0 0 3.063 10.058c3.963 8.976 9.647 15.941 17.059 20.9 7.4 4.96 16.062 7.437 25.97 7.437 6.53 0 12.365-1.106 17.5-3.329l9.966 14.341c-8.396 3.854-17.548 5.775-27.467 5.775-9.091 0-17.633-1.722-25.619-5.159-7.992-3.431-14.987-8.13-20.997-14.08-6.005-5.95-10.729-12.886-14.166-20.817-3.437-7.926-5.159-16.383-5.159-25.36 0-9.211 1.722-17.813 5.16-25.8 3.436-7.991 8.136-14.956 14.08-20.906 5.95-5.944 12.945-10.614 20.992-13.99C294.39 21.69 302.962 20 312.054 20c9.211 0 17.843 1.722 25.89 5.159 8.046 3.45 15.041 8.13 20.997 14.087 5.945 5.944 10.602 12.915 13.99 20.9 3.384 7.987 5.069 16.583 5.069 25.8zm-167.57-65.76l-90.086 131h23.438l70.846-106.353h.175v106.353h19.065v-131H210.43zM161.45 20L90.436 126.529h-.175V20L71.196 48.863 19.59 126.529h-.525V20H0v131.187h23.438l47.758-68.913v68.913h23.432L185.07 20h-23.619z" fill-opacity=".5"/><path d="M398 65.947c0 8.517-1.546 16.527-4.64 24.054-3.086 7.515-7.375 14.136-12.848 19.85l15.041 21.336h-20.991l-7.164-10.318-3.329-4.723-6.476-9.098a65.14 65.14 0 0 0 6.736-5.418 34.215 34.215 0 0 0 5.684-6.82c2.338-3.148 4.434-7.056 6.295-11.726 1.987-5.587 2.972-11.247 2.972-16.968 0-6.754-1.166-13.114-3.492-19.065-2.332-5.944-5.6-11.163-9.798-15.651-4.192-4.488-9.182-8.046-14.95-10.668-5.782-2.628-12.1-3.933-18.987-3.933-9.907 0-18.593 2.501-26.06 7.515-7.466 5.014-13.12 12.07-16.968 21.167-1.28 3.038-2.302 6.264-3.063 9.713a49.167 49.167 0 0 0-1.135 10.578c0 3.383.38 6.79 1.135 10.233a67.34 67.34 0 0 0 3.063 10.058c3.963 8.976 9.647 15.941 17.059 20.9 7.4 4.96 16.062 7.437 25.97 7.437 6.53 0 12.365-1.106 17.5-3.329l9.966 14.341c-8.396 3.854-17.548 5.775-27.467 5.775-9.091 0-17.633-1.722-25.619-5.159-7.992-3.431-14.987-8.13-20.997-14.08-6.005-5.95-10.729-12.886-14.166-20.817-3.437-7.926-5.159-16.383-5.159-25.36 0-9.211 1.722-17.813 5.16-25.8 3.436-7.991 8.136-14.956 14.08-20.906 5.95-5.944 12.945-10.614 20.992-13.99C314.39 1.69 322.962 0 332.054 0c9.211 0 17.843 1.722 25.89 5.159 8.046 3.45 15.041 8.13 20.997 14.087 5.945 5.944 10.602 12.915 13.99 20.9 3.384 7.987 5.069 16.583 5.069 25.8zM230.43.187l-90.086 131h23.438l70.846-106.353h.175v106.353h19.065v-131H230.43zM181.45 0l-71.015 106.529h-.175V0L91.196 28.863 39.59 106.529h-.525V0H20v131.187h23.438l47.758-68.913v68.913h23.432L205.07 0h-23.619z" fill-opacity=".5"/><path d="M388 75.947c0 8.517-1.546 16.527-4.64 24.054-3.086 7.515-7.375 14.136-12.848 19.85l15.041 21.336h-20.991l-7.164-10.318-3.329-4.723-6.476-9.098a65.14 65.14 0 0 0 6.736-5.418 34.215 34.215 0 0 0 5.684-6.82c2.338-3.148 4.434-7.056 6.295-11.726 1.987-5.587 2.972-11.247 2.972-16.968 0-6.754-1.166-13.114-3.492-19.065-2.332-5.944-5.6-11.163-9.798-15.651-4.192-4.488-9.182-8.046-14.95-10.668-5.782-2.628-12.1-3.933-18.987-3.933-9.907 0-18.593 2.501-26.06 7.515-7.466 5.014-13.12 12.07-16.968 21.167-1.28 3.038-2.302 6.264-3.063 9.713a49.167 49.167 0 0 0-1.135 10.578c0 3.383.38 6.79 1.135 10.233a67.34 67.34 0 0 0 3.063 10.058c3.963 8.976 9.647 15.941 17.059 20.9 7.4 4.96 16.062 7.437 25.97 7.437 6.53 0 12.365-1.106 17.5-3.329l9.966 14.341c-8.396 3.854-17.548 5.775-27.467 5.775-9.091 0-17.633-1.722-25.619-5.159-7.992-3.431-14.987-8.13-20.997-14.08-6.005-5.95-10.729-12.886-14.166-20.817-3.437-7.926-5.159-16.383-5.159-25.36 0-9.211 1.722-17.813 5.16-25.8 3.436-7.991 8.136-14.956 14.08-20.906 5.95-5.944 12.945-10.614 20.992-13.99C304.39 11.69 312.962 10 322.054 10c9.211 0 17.843 1.722 25.89 5.159 8.046 3.45 15.041 8.13 20.997 14.087 5.945 5.944 10.602 12.915 13.99 20.9 3.384 7.987 5.069 16.583 5.069 25.8zm-167.57-65.76l-90.086 131h23.438l70.846-106.353h.175v106.353h19.065v-131H220.43zM171.45 10l-71.015 106.529h-.175V10L81.196 38.863 29.59 116.529h-.525V10H10v131.187h23.438l47.758-68.913v68.913h23.432L195.07 10h-23.619z"/></g></symbol></svg>