<?xml version="1.0" encoding="UTF-8" standalone="no"?>
<svg width="23px" height="23px" viewBox="0 0 23 23" version="1.1" xmlns="http://www.w3.org/2000/svg" xmlns:xlink="http://www.w3.org/1999/xlink">
    <!-- Generator: Sketch 39.1 (31720) - http://www.bohemiancoding.com/sketch -->
    <title>icon-instagram</title>
    <desc>Created with Sketch.</desc>
    <defs></defs>
    <g id="Welcome" stroke="none" stroke-width="1" fill="none" fill-rule="evenodd">
        <g id="Desktop" transform="translate(-1043.000000, -3256.000000)" fill="#474747">
            <g id="Footer" transform="translate(-77.000000, 3224.000000)">
                <g id="Group-6-Copy-2" transform="translate(1114.000000, 26.000000)">
                    <g id="icon-instagram" transform="translate(6.000000, 6.000000)">
                        <path d="M11.592,5.72745098 C8.372,5.72745098 5.704,8.29803922 5.704,11.5 C5.704,14.7019608 8.326,17.272549 11.592,17.272549 C14.858,17.272549 17.48,14.6568627 17.48,11.5 C17.48,8.34313725 14.812,5.72745098 11.592,5.72745098 L11.592,5.72745098 Z M11.592,15.1980392 C9.522,15.1980392 7.82,13.5294118 7.82,11.5 C7.82,9.47058824 9.522,7.80196078 11.592,7.80196078 C13.662,7.80196078 15.364,9.47058824 15.364,11.5 C15.364,13.5294118 13.662,15.1980392 11.592,15.1980392 L11.592,15.1980392 Z" id="Shape"></path>
                        <ellipse id="Oval" cx="17.71" cy="5.59215686" rx="1.334" ry="1.30784314"></ellipse>
                        <path d="M21.16,2.20980392 C19.964,0.992156863 18.262,0.360784314 16.33,0.360784314 L6.854,0.360784314 C2.852,0.360784314 0.184,2.97647059 0.184,6.9 L0.184,16.145098 C0.184,18.0843137 0.828,19.7529412 2.116,20.9705882 C3.358,22.1431373 5.014,22.7294118 6.9,22.7294118 L16.284,22.7294118 C18.262,22.7294118 19.918,22.0980392 21.114,20.9705882 C22.356,19.7980392 23,18.1294118 23,16.1901961 L23,6.9 C23,5.00588235 22.356,3.38235294 21.16,2.20980392 L21.16,2.20980392 Z M20.884,16.1901961 C20.884,17.5882353 20.47,18.7156863 19.642,19.4823529 C18.814,20.2490196 17.664,20.654902 16.284,20.654902 L6.9,20.654902 C5.52,20.654902 4.37,20.2490196 3.542,19.4823529 C2.714,18.6705882 2.3,17.5431373 2.3,16.145098 L2.3,6.9 C2.3,5.54705882 2.714,4.41960784 3.542,3.60784314 C4.324,2.84117647 5.52,2.43529412 6.9,2.43529412 L16.376,2.43529412 C17.756,2.43529412 18.906,2.84117647 19.734,3.65294118 C20.516,4.46470588 20.976,5.59215686 20.976,6.9 L20.976,16.1901961 L20.884,16.1901961 Z" id="Shape"></path>
                    </g>
                </g>
            </g>
        </g>
    </g>
</svg>