<?xml version="1.0" encoding="UTF-8" standalone="no"?>
<svg width="21px" height="18px" viewBox="0 0 21 18" version="1.1" xmlns="http://www.w3.org/2000/svg" xmlns:xlink="http://www.w3.org/1999/xlink">
    <!-- Generator: Sketch 39.1 (31720) - http://www.bohemiancoding.com/sketch -->
    <title>icon-twitter</title>
    <desc>Created with Sketch.</desc>
    <defs></defs>
    <g id="Welcome" stroke="none" stroke-width="1" fill="none" fill-rule="evenodd">
        <g id="Desktop" transform="translate(-952.000000, -3258.000000)" fill="#474747">
            <g id="Footer" transform="translate(-77.000000, 3224.000000)">
                <g id="Group-6" transform="translate(1022.000000, 26.000000)">
                    <path d="M25.5257841,11.5071665 C26.4044161,10.9811655 27.0781181,10.14798 27.3958227,9.15404854 C26.5739988,9.64175664 25.6642275,9.99565009 24.6951234,10.1866936 C23.9195875,9.36024092 22.8141439,8.84349757 21.590876,8.84349757 C19.2423869,8.84349757 17.3382634,10.7476211 17.3382634,13.096531 C17.3382634,13.4293844 17.3757147,13.7538218 17.4485132,14.0656352 C13.9137867,13.8880573 10.7796626,12.1951757 8.6819707,9.621979 C8.31587403,10.2498138 8.10631524,10.9803239 8.10631524,11.7604885 C8.10631524,13.2358161 8.85702382,14.5377736 9.99823552,15.3002646 C9.30138944,15.2779622 8.64536103,15.0864979 8.07180958,14.7679517 C8.07138878,14.7856253 8.07138878,14.8037197 8.07138878,14.8218142 C8.07138878,16.8820548 9.53745867,18.6006051 11.4832415,18.9919498 C11.1264024,19.088734 10.7506273,19.1409133 10.362649,19.1409133 C10.0882869,19.1409133 9.82192,19.1144029 9.56228592,19.0643276 C10.1038565,20.7538427 11.674285,21.9838433 13.535066,22.0179282 C12.0795162,23.1587191 10.2460872,23.8387332 8.25317471,23.8387332 C7.91022208,23.8387332 7.57147746,23.8185347 7.23862404,23.7789794 C9.12128671,24.9862569 11.3565804,25.6898358 13.7580904,25.6898358 C21.5811976,25.6898358 25.8586375,19.2095038 25.8586375,13.5892887 C25.8586375,13.404978 25.8548503,13.221088 25.8468551,13.0384605 C26.6775158,12.4400818 27.3987683,11.6906356 27.9685326,10.8376724 C27.2064624,11.1764171 26.3863217,11.4049119 25.5257841,11.5071665 Z" id="icon-twitter"></path>
                </g>
            </g>
        </g>
    </g>
</svg>