<?xml version="1.0" encoding="UTF-8" standalone="no"?>
<svg width="43px" height="35px" viewBox="0 0 43 35" version="1.1" xmlns="http://www.w3.org/2000/svg" xmlns:xlink="http://www.w3.org/1999/xlink">
    <!-- Generator: Sketch 39.1 (31720) - http://www.bohemiancoding.com/sketch -->
    <title>icon-date</title>
    <desc>Created with Sketch.</desc>
    <defs></defs>
    <g id="Welcome" stroke="none" stroke-width="1" fill="none" fill-rule="evenodd">
        <g id="Desktop" transform="translate(-776.000000, -647.000000)" fill="#FFFFFF">
            <g id="Header" transform="translate(-241.000000, -4.000000)">
                <path d="M1055.94737,686 L1020.94737,686 C1018.91276,686 1017.26316,684.350395 1017.26316,682.315789 L1017.26316,654.684211 C1017.26316,652.649605 1018.91276,651 1020.94737,651 L1055.94737,651 C1057.98197,651 1059.63158,652.649605 1059.63158,654.684211 L1059.63158,682.315789 C1059.63158,684.350395 1057.98197,686 1055.94737,686 L1055.94737,686 Z M1057.78947,654.684211 C1057.78947,653.667368 1056.96421,652.842105 1055.94737,652.842105 L1020.94737,652.842105 C1019.93053,652.842105 1019.10526,653.667368 1019.10526,654.684211 L1019.10526,660.210526 L1057.78947,660.210526 L1057.78947,654.684211 L1057.78947,654.684211 Z M1057.78947,662.052632 L1019.10526,662.052632 L1019.10526,682.315789 C1019.10526,683.332632 1019.93053,684.157895 1020.94737,684.157895 L1055.94737,684.157895 C1056.96421,684.157895 1057.78947,683.332632 1057.78947,682.315789 L1057.78947,662.052632 L1057.78947,662.052632 Z M1054.10526,674.947368 L1052.26316,674.947368 C1051.75474,674.947368 1051.34211,674.535658 1051.34211,674.026316 L1051.34211,672.184211 C1051.34211,671.675789 1051.75474,671.263158 1052.26316,671.263158 L1054.10526,671.263158 C1054.61461,671.263158 1055.02632,671.675789 1055.02632,672.184211 L1055.02632,674.026316 C1055.02632,674.535658 1054.61461,674.947368 1054.10526,674.947368 L1054.10526,674.947368 Z M1054.10526,668.5 L1052.26316,668.5 C1051.75474,668.5 1051.34211,668.088289 1051.34211,667.578947 L1051.34211,665.736842 C1051.34211,665.2275 1051.75474,664.815789 1052.26316,664.815789 L1054.10526,664.815789 C1054.61461,664.815789 1055.02632,665.2275 1055.02632,665.736842 L1055.02632,667.578947 C1055.02632,668.088289 1054.61461,668.5 1054.10526,668.5 L1054.10526,668.5 Z M1046.73684,674.947368 L1044.89474,674.947368 C1044.38632,674.947368 1043.97368,674.535658 1043.97368,674.026316 L1043.97368,672.184211 C1043.97368,671.675789 1044.38632,671.263158 1044.89474,671.263158 L1046.73684,671.263158 C1047.24618,671.263158 1047.65789,671.675789 1047.65789,672.184211 L1047.65789,674.026316 C1047.65789,674.535658 1047.24618,674.947368 1046.73684,674.947368 L1046.73684,674.947368 Z M1046.73684,668.5 L1044.89474,668.5 C1044.38632,668.5 1043.97368,668.088289 1043.97368,667.578947 L1043.97368,665.736842 C1043.97368,665.2275 1044.38632,664.815789 1044.89474,664.815789 L1046.73684,664.815789 C1047.24618,664.815789 1047.65789,665.2275 1047.65789,665.736842 L1047.65789,667.578947 C1047.65789,668.088289 1047.24618,668.5 1046.73684,668.5 L1046.73684,668.5 Z M1039.36842,674.947368 L1037.52632,674.947368 C1037.01697,674.947368 1036.60526,674.535658 1036.60526,674.026316 L1036.60526,672.184211 C1036.60526,671.675789 1037.01697,671.263158 1037.52632,671.263158 L1039.36842,671.263158 C1039.87776,671.263158 1040.28947,671.675789 1040.28947,672.184211 L1040.28947,674.026316 C1040.28947,674.535658 1039.87776,674.947368 1039.36842,674.947368 L1039.36842,674.947368 Z M1039.36842,668.5 L1037.52632,668.5 C1037.01697,668.5 1036.60526,668.088289 1036.60526,667.578947 L1036.60526,665.736842 C1036.60526,665.2275 1037.01697,664.815789 1037.52632,664.815789 L1039.36842,664.815789 C1039.87776,664.815789 1040.28947,665.2275 1040.28947,665.736842 L1040.28947,667.578947 C1040.28947,668.088289 1039.87776,668.5 1039.36842,668.5 L1039.36842,668.5 Z M1032,681.394737 L1030.15789,681.394737 C1029.64855,681.394737 1029.23684,680.983026 1029.23684,680.473684 L1029.23684,678.631579 C1029.23684,678.122237 1029.64855,677.710526 1030.15789,677.710526 L1032,677.710526 C1032.50934,677.710526 1032.92105,678.122237 1032.92105,678.631579 L1032.92105,680.473684 C1032.92105,680.983026 1032.50934,681.394737 1032,681.394737 L1032,681.394737 Z M1032,674.947368 L1030.15789,674.947368 C1029.64855,674.947368 1029.23684,674.535658 1029.23684,674.026316 L1029.23684,672.184211 C1029.23684,671.675789 1029.64855,671.263158 1030.15789,671.263158 L1032,671.263158 C1032.50934,671.263158 1032.92105,671.675789 1032.92105,672.184211 L1032.92105,674.026316 C1032.92105,674.535658 1032.50934,674.947368 1032,674.947368 L1032,674.947368 Z M1032,668.5 L1030.15789,668.5 C1029.64855,668.5 1029.23684,668.088289 1029.23684,667.578947 L1029.23684,665.736842 C1029.23684,665.2275 1029.64855,664.815789 1030.15789,664.815789 L1032,664.815789 C1032.50934,664.815789 1032.92105,665.2275 1032.92105,665.736842 L1032.92105,667.578947 C1032.92105,668.088289 1032.50934,668.5 1032,668.5 L1032,668.5 Z M1024.63158,681.394737 L1022.78947,681.394737 C1022.28013,681.394737 1021.86842,680.983026 1021.86842,680.473684 L1021.86842,678.631579 C1021.86842,678.122237 1022.28013,677.710526 1022.78947,677.710526 L1024.63158,677.710526 C1025.14092,677.710526 1025.55263,678.122237 1025.55263,678.631579 L1025.55263,680.473684 C1025.55263,680.983026 1025.14092,681.394737 1024.63158,681.394737 L1024.63158,681.394737 Z M1024.63158,674.947368 L1022.78947,674.947368 C1022.28013,674.947368 1021.86842,674.535658 1021.86842,674.026316 L1021.86842,672.184211 C1021.86842,671.675789 1022.28013,671.263158 1022.78947,671.263158 L1024.63158,671.263158 C1025.14092,671.263158 1025.55263,671.675789 1025.55263,672.184211 L1025.55263,674.026316 C1025.55263,674.535658 1025.14092,674.947368 1024.63158,674.947368 L1024.63158,674.947368 Z M1037.52632,677.710526 L1039.36842,677.710526 C1039.87776,677.710526 1040.28947,678.122237 1040.28947,678.631579 L1040.28947,680.473684 C1040.28947,680.983026 1039.87776,681.394737 1039.36842,681.394737 L1037.52632,681.394737 C1037.01697,681.394737 1036.60526,680.983026 1036.60526,680.473684 L1036.60526,678.631579 C1036.60526,678.122237 1037.01697,677.710526 1037.52632,677.710526 L1037.52632,677.710526 Z" id="icon-date"></path>
            </g>
        </g>
    </g>
</svg>