<?xml version="1.0" encoding="UTF-8" standalone="no"?>
<svg width="509px" height="159px" viewBox="0 0 509 159" version="1.1" xmlns="http://www.w3.org/2000/svg" xmlns:xlink="http://www.w3.org/1999/xlink">
    <!-- Generator: Sketch 39.1 (31720) - http://www.bohemiancoding.com/sketch -->
    <title>Group</title>
    <desc>Created with Sketch.</desc>
    <defs></defs>
    <g id="Welcome" stroke="none" stroke-width="1" fill="none" fill-rule="evenodd">
        <g id="Desktop" transform="translate(-485.000000, -221.000000)" fill="#FFFFFF">
            <g id="Header" transform="translate(-241.000000, -4.000000)">
                <g id="Group-2" transform="translate(726.000000, 225.000000)">
                    <g id="logoSemaineNumerique">
                        <g id="Calque_1">
                            <g id="logo">
                                <g id="Group">
                                    <g id="Shape">
                                        <path d="M9.36220183,40.1771176 C12.3707339,45.0453235 16.956055,47.4802059 23.403578,47.4802059 C29.1352294,47.4802059 31.7133028,44.9019118 31.7133028,41.8949412 C31.7133028,39.7468824 30.5669725,38.3143235 28.7047706,37.312 C27.7019266,36.5965 25.4092661,35.5941765 23.9759633,35.1639412 C22.6861468,34.5918529 19.3906422,33.5879706 17.8154128,32.8724706 C9.07522936,29.7220882 4.34798165,25.1391471 4.34798165,16.6903235 C4.34798165,11.9639706 6.06669725,8.09808824 9.64917431,5.23452941 C13.2316514,2.37097059 17.6719266,0.938411765 22.829633,0.938411765 C30.8523853,0.938411765 37.0144954,3.94538235 41.3112844,10.1027353 L33.1450459,16.4035 C30.8523853,13.5399412 27.5568807,12.1073824 23.1166055,12.1073824 C19.1052294,12.1073824 16.3821101,13.9686176 16.3821101,16.6903235 C16.3821101,18.5515588 16.8125688,19.6972941 18.5312844,20.6996176 C19.3906422,21.1298529 20.25,21.5585294 20.9674312,21.8453529 L24.9788073,23.1345 C26.8410092,23.7065882 28.4177982,24.2802353 29.7076147,24.8523235 C39.8795413,28.7182059 43.8924771,33.4445588 43.8924771,41.4631471 C43.8924771,51.7732059 36.8725688,58.5042059 23.1181651,58.5042059 C11.7999083,58.5042059 4.06256881,53.4925882 0.194678899,46.1895 L9.36220183,40.1771176 L9.36220183,40.1771176 Z"></path>
                                        <path d="M48.0457798,37.6003824 C48.0457798,31.2996176 50.1949541,26.1445882 54.2063303,22.2787059 C58.2177064,18.4128235 63.5188991,16.4081765 69.8229358,16.4081765 C75.9834862,16.4081765 80.9977064,18.4128235 84.7236697,22.2787059 C88.5915596,26.1445882 90.4553211,31.0143529 90.4553211,36.8848824 C90.4553211,38.1740294 90.3118349,39.4631765 90.3118349,40.7507647 L59.7944954,40.7507647 C60.0814679,45.4771176 64.2363303,48.6275 70.540367,48.6275 C74.2647706,48.6275 77.5602752,47.3383529 80.4268807,44.7616176 L87.446789,51.3492059 C82.7179817,56.2174118 76.8444037,58.6522941 70.1099083,58.6522941 C63.5188991,58.6522941 58.2177064,56.7910588 54.062844,52.9236176 C50.0514679,49.0577353 48.0457798,44.0445588 48.0457798,37.7437941 L48.0457798,37.6003824 L48.0457798,37.6003824 L48.0457798,37.6003824 Z M78.5631193,33.0174412 C78.5631193,29.2949706 74.6952294,26.2864412 69.8229358,26.2864412 C64.6652294,26.2864412 60.3668807,29.2934118 60.0799083,33.0174412 L78.5631193,33.0174412 L78.5631193,33.0174412 Z"></path>
                                        <path d="M94.6101835,57.7902647 L94.6101835,17.5523529 L106.502385,17.5523529 L106.502385,22.5639706 C108.079174,18.9833529 112.09055,16.6934412 116.961284,16.6934412 C122.405963,16.6934412 126.130367,18.8415 127.850642,23.1376176 C130.143303,18.8415 134.585138,16.6934412 141.318073,16.6934412 C150.487156,16.6934412 155.644862,22.9942059 155.644862,33.4476765 L155.644862,57.9352353 L143.752661,57.9352353 L143.752661,34.8802353 C143.752661,30.1538824 141.603486,27.2903235 137.735596,27.2903235 C133.867706,27.2903235 131.001101,30.5841176 131.001101,35.3089118 L131.001101,57.9352353 L119.108899,57.9352353 L119.108899,34.8802353 C119.108899,30.1538824 116.959725,27.2903235 113.091835,27.2903235 C109.223945,27.2903235 106.500826,30.5841176 106.500826,35.3089118 L106.500826,57.9352353 L94.6086239,57.9352353 L94.6086239,57.7902647 L94.6101835,57.7902647 Z"></path>
                                        <path d="M177.567064,32.7306176 C183.440642,32.1585294 185.733303,31.5848824 185.733303,29.0081471 C185.733303,26.7166765 183.871101,25.7143529 180.288624,25.7143529 C175.990275,25.7143529 172.551284,27.4321765 169.542752,30.7259706 L162.522844,24.7120294 C166.821193,18.9833529 172.551284,16.1197941 180.145138,16.1197941 C190.891009,16.1197941 197.482018,21.1314118 197.482018,29.7236471 L197.482018,45.0453235 C197.482018,47.9088824 198.341376,48.1957059 200.49055,48.1957059 L200.777523,48.1957059 L200.777523,57.6468529 C199.631193,58.2189412 198.055963,58.5057647 196.048716,58.5057647 C193.756055,58.5057647 191.893853,57.9336765 190.317064,56.7879412 C189.457706,56.0724412 188.883761,55.2119706 188.454862,54.2096471 C185.875229,57.3600294 181.291468,58.936 174.843945,58.936 C165.818349,58.936 159.799725,54.0677941 159.799725,46.6212941 C159.801284,38.1724706 165.244404,34.0197647 177.567064,32.7306176 L177.567064,32.7306176 Z M176.706147,49.0561765 C182.437798,49.0561765 185.731743,46.6212941 185.731743,41.8965 L185.731743,38.8895294 C185.301284,39.3197647 184.728899,39.4616176 183.439083,39.8918529 L182.00578,40.1786765 C181.146422,40.3220882 178.853761,40.6089118 177.850917,40.7507647 C173.696055,41.3228529 171.259908,42.4685882 171.259908,45.3337059 C171.406514,47.7670294 173.125229,49.0561765 176.706147,49.0561765 L176.706147,49.0561765 Z"></path>
                                        <path d="M211.521835,0.654705882 C215.246239,0.654705882 218.25633,3.66167647 218.25633,7.38570588 C218.25633,11.1097353 215.247798,14.1167059 211.521835,14.1167059 C207.797431,14.1167059 204.787339,11.1097353 204.787339,7.38570588 C204.645413,3.51826471 207.797431,0.654705882 211.521835,0.654705882 L211.521835,0.654705882 Z M205.648257,57.7902647 L205.648257,17.5523529 L217.540459,17.5523529 L217.540459,57.7918235 L205.648257,57.7918235 L205.648257,57.7902647 Z"></path>
                                        <path d="M222.267706,57.7902647 L222.267706,17.5523529 L234.159908,17.5523529 L234.159908,22.5639706 C235.878624,18.9833529 240.463945,16.6934412 245.908624,16.6934412 C255.795138,16.6934412 261.381743,22.9942059 261.381743,33.4476765 L261.381743,57.9352353 L249.489541,57.9352353 L249.489541,34.8802353 C249.489541,30.1538824 246.909908,27.2903235 242.182661,27.2903235 C237.597339,27.2903235 234.301835,30.5841176 234.301835,35.3089118 L234.301835,57.9352353 L222.266147,57.9352353 L222.266147,57.7902647 L222.267706,57.7902647 Z"></path>
                                        <path d="M265.393119,37.6003824 C265.393119,31.2996176 267.542294,26.1445882 271.55367,22.2787059 C275.565046,18.4128235 280.866239,16.4081765 287.170275,16.4081765 C293.330826,16.4081765 298.345046,18.4128235 302.071009,22.2787059 C305.938899,26.1445882 307.802661,31.0143529 307.802661,36.8848824 C307.802661,38.1740294 307.659174,39.4631765 307.659174,40.7507647 L277.141835,40.7507647 C277.428807,45.4771176 281.58367,48.6275 287.887706,48.6275 C291.61211,48.6275 294.907615,47.3383529 297.77422,44.7616176 L304.794128,51.3492059 C300.065321,56.2174118 294.191743,58.6522941 287.457248,58.6522941 C280.866239,58.6522941 275.565046,56.7910588 271.410183,52.9236176 C267.398807,49.0577353 265.393119,44.0445588 265.393119,37.7437941 L265.393119,37.6003824 L265.393119,37.6003824 L265.393119,37.6003824 Z M295.910459,33.0174412 C295.910459,29.2949706 292.042569,26.2864412 287.170275,26.2864412 C282.012569,26.2864412 277.71422,29.2934118 277.427248,33.0174412 L295.910459,33.0174412 L295.910459,33.0174412 Z"></path>
                                    </g>
                                    <g transform="translate(0.000000, 15.588235)" id="Shape">
                                        <path d="M0.193119266,122.252294 L0.193119266,69.8415294 L15.6662385,69.8415294 L15.6662385,76.4291176 C17.8154128,71.8461765 23.8324771,68.6957941 30.9958716,68.6957941 C43.7474312,68.6957941 51.0543119,76.8577941 51.0543119,90.4616471 L51.0543119,122.252294 L35.5811927,122.252294 L35.5811927,92.3228824 C35.5811927,86.1655294 32.1422018,82.4415 25.9816514,82.4415 C20.1080734,82.4415 15.6662385,86.7376176 15.6662385,92.8949706 L15.6662385,122.250735 L0.193119266,122.250735 L0.193119266,122.252294 L0.193119266,122.252294 Z"></path>
                                        <path d="M56.9294495,69.8399706 L72.6895413,69.8399706 L72.6895413,99.7693824 C72.6895413,106.356971 76.5574312,109.507353 82.2890826,109.507353 C88.0207339,109.507353 91.8886239,106.500382 91.8886239,99.7693824 L91.8886239,69.8399706 L107.648716,69.8399706 L107.648716,101.056971 C107.648716,108.360059 105.212569,113.945324 100.341835,117.811206 C95.6130275,121.677088 89.5959633,123.681735 82.2890826,123.681735 C75.1256881,123.681735 69.1070642,121.677088 64.2363303,117.811206 C59.5075229,113.945324 57.0729358,108.360059 57.0729358,101.056971 L57.0729358,69.8399706 L56.9294495,69.8399706 L56.9294495,69.8399706 Z"></path>
                                        <path d="M113.236881,122.252294 L113.236881,69.8415294 L128.71,69.8415294 L128.71,76.4291176 C130.715688,71.8461765 136.016881,68.6957941 142.320917,68.6957941 C149.340826,68.6957941 154.213119,71.5593529 156.50578,77.0012059 C159.370826,71.5593529 165.245963,68.6957941 173.984587,68.6957941 C185.876789,68.6957941 192.609725,76.8577941 192.609725,90.4616471 L192.609725,122.252294 L177.136606,122.252294 L177.136606,92.3228824 C177.136606,86.1655294 174.27156,82.4415 169.399266,82.4415 C164.24156,82.4415 160.659083,86.7376176 160.659083,92.8949706 L160.659083,122.250735 L145.185963,122.250735 L145.185963,92.3213235 C145.185963,86.1639706 142.320917,82.4399412 137.448624,82.4399412 C132.57789,82.4399412 128.851927,86.7360588 128.851927,92.8934118 L128.851927,122.249176 L113.236881,122.249176 L113.236881,122.252294 L113.236881,122.252294 Z"></path>
                                        <path d="M198.484862,95.9035 C198.484862,87.7415 201.206422,81.0105 206.507615,75.9988824 C211.808807,70.8438529 218.685229,68.4089706 226.853028,68.4089706 C234.87578,68.4089706 241.323303,70.9872647 246.339083,76.1422941 C251.354862,81.2973235 253.78945,87.4546765 253.78945,95.0445882 C253.78945,96.7624118 253.645963,98.4817941 253.645963,100.056206 L213.959541,100.056206 C214.246514,106.356971 219.691193,110.366265 227.857431,110.366265 C232.728165,110.366265 237.026514,108.648441 240.608991,105.211235 L249.634587,113.803471 C243.474037,120.104235 235.880183,123.398029 227.14,123.398029 C218.543303,123.398029 211.666881,120.963147 206.365688,115.951529 C201.064495,110.939912 198.484862,104.352324 198.484862,96.1903235 L198.484862,95.9035 L198.484862,95.9035 Z M238.314771,90.0314118 C238.314771,85.1632059 233.157064,81.2957647 226.996514,81.2957647 C220.262018,81.2957647 214.675413,85.1616471 214.244954,90.0314118 L238.314771,90.0314118 L238.314771,90.0314118 Z M219.689633,64.8283529 L224.847339,49.7919412 L241.610275,49.7919412 L231.151376,64.8283529 L219.689633,64.8283529 L219.689633,64.8283529 Z"></path>
                                        <path d="M259.663028,122.252294 L259.663028,69.8415294 L275.136147,69.8415294 L275.136147,77.0012059 C277.572294,71.7027647 283.158899,68.6957941 290.323853,68.6957941 C291.326697,68.6957941 292.76,68.8392059 294.335229,68.9826176 L294.335229,83.5887941 C292.76,83.3019706 291.039725,83.0167059 289.177523,83.0167059 C280.293853,83.0167059 275.136147,88.0283235 275.136147,96.6205588 L275.136147,122.253853 L259.663028,122.252294 L259.663028,122.252294 L259.663028,122.252294 Z"></path>
                                        <path d="M374.712477,77.1430588 L374.712477,70.2702059 L390.185596,70.2702059 L390.185596,142.585588 L374.712477,142.585588 L374.712477,115.664706 C373.135688,120.247647 366.975138,123.398029 359.095872,123.398029 C351.645505,123.398029 345.484954,120.819735 340.470734,115.664706 C335.6,110.366265 333.020367,103.922088 333.020367,96.3321765 C333.020367,88.7422647 335.456514,82.2980882 340.470734,77.1430588 C345.484954,71.8446176 351.645505,69.2663235 359.095872,69.2663235 C367.118624,69.2678824 373.135688,72.5616765 374.712477,77.1430588 L374.712477,77.1430588 Z M371.560459,105.783324 C374.282018,103.205029 375.571835,100.054647 375.571835,96.4755882 C375.571835,92.8949706 374.282018,89.7445882 371.560459,87.1678529 C368.980826,84.5895588 365.686881,83.3019706 361.960917,83.3019706 C358.236514,83.3019706 355.084495,84.5911176 352.504862,87.1678529 C349.925229,89.6027353 348.636972,92.7531176 348.636972,96.4755882 C348.636972,100.056206 349.926789,103.206588 352.504862,105.783324 C355.084495,108.218206 358.236514,109.505794 361.960917,109.505794 C365.828807,109.507353 368.980826,108.218206 371.560459,105.783324 L371.560459,105.783324 Z"></path>
                                        <path d="M396.202661,70.2702059 L411.962752,70.2702059 L411.962752,100.199618 C411.962752,106.787206 415.830642,109.937588 421.562294,109.937588 C427.293945,109.937588 431.161835,106.930618 431.161835,100.199618 L431.161835,70.2702059 L446.921927,70.2702059 L446.921927,101.487206 C446.921927,108.790294 444.48578,114.375559 439.615046,118.241441 C434.886239,122.107324 428.869174,124.111971 421.562294,124.111971 C414.398899,124.111971 408.380275,122.107324 403.509541,118.241441 C398.780734,114.375559 396.346147,108.790294 396.346147,101.487206 L396.346147,70.2702059 L396.202661,70.2702059 L396.202661,70.2702059 Z"></path>
                                        <path d="M452.94055,96.3321765 C452.94055,88.1701765 455.66211,81.4391765 460.963303,76.4275588 C466.264495,71.2725294 473.140917,68.8376471 481.308716,68.8376471 C489.331468,68.8376471 495.778991,71.4159412 500.794771,76.5709706 C505.808991,81.726 508.245138,87.8833529 508.245138,95.4732647 C508.245138,97.1910882 508.101651,98.9104706 508.101651,100.484882 L468.415229,100.484882 C468.702202,106.785647 474.146881,110.794941 482.313119,110.794941 C487.183853,110.794941 491.482202,109.077118 495.064679,105.639912 L504.090275,114.232147 C497.929725,120.532912 490.335872,123.826706 481.595688,123.826706 C472.998991,123.826706 466.122569,121.391824 460.821376,116.380206 C455.520183,111.368588 452.94055,104.781 452.94055,96.619 L452.94055,96.3321765 L452.94055,96.3321765 Z M492.626972,90.3182353 C492.626972,85.4500294 487.469266,81.5825882 481.308716,81.5825882 C474.57422,81.5825882 468.987615,85.4484706 468.557156,90.3182353 L492.626972,90.3182353 L492.626972,90.3182353 Z"></path>
                                        <polygon points="305.081101 122.394147 286.741376 122.394147 348.636972 0.961794118 366.831651 0.961794118"></polygon>
                                    </g>
                                </g>
                            </g>
                        </g>
                    </g>
                </g>
            </g>
        </g>
    </g>
</svg>